<svg xmlns="http://www.w3.org/2000/svg" xmlns:xlink="http://www.w3.org/1999/xlink" width="111.052" height="112.039" viewBox="0 0 111.052 112.039">
  <defs>
    <filter id="Trazado_164" x="0" y="6.769" width="86.694" height="96.874" filterUnits="userSpaceOnUse">
      <feOffset dx="3" dy="3" input="SourceAlpha"/>
      <feGaussianBlur stdDeviation="3.5" result="blur"/>
      <feFlood flood-opacity="0.161"/>
      <feComposite operator="in" in2="blur"/>
      <feComposite in="SourceGraphic"/>
    </filter>
    <filter id="Trazado_177" x="17.678" y="0" width="93.373" height="112.039" filterUnits="userSpaceOnUse">
      <feOffset dx="3" dy="3" input="SourceAlpha"/>
      <feGaussianBlur stdDeviation="3.5" result="blur-2"/>
      <feFlood flood-opacity="0.161"/>
      <feComposite operator="in" in2="blur-2"/>
      <feComposite in="SourceGraphic"/>
    </filter>
  </defs>
  <g id="leaves_right" data-name="leaves right" transform="translate(7.5 7.5)">
    <g id="Grupo_165" data-name="Grupo 165" transform="translate(32.862 6.769) rotate(30)">
      <g transform="matrix(0.87, -0.5, 0.5, 0.87, -42.09, 7.82)" filter="url(#Trazado_164)">
        <path id="Trazado_164-2" data-name="Trazado 164" d="M33.5,35.766c11.154,23.926-2.34,28.977-2.34,28.977s-12.548,7.086-23.7-16.836S.969,0,.969,0,22.341,11.84,33.5,35.766Z" transform="translate(40.36 14.27) rotate(30)" fill="#73c089"/>
      </g>
      <g id="Grupo_164" data-name="Grupo 164" transform="translate(3.497 5.649)">
        <path id="Trazado_165" data-name="Trazado 165" d="M27.79,59.371a.2.2,0,0,0,.1-.264L.38.116h0A.2.2,0,1,0,.019.284l27.5,58.991h0a.2.2,0,0,0,.264.1Z" fill="#fff"/>
      </g>
      <path id="Trazado_166" data-name="Trazado 166" d="M0,9.111C.048,9.058,3.869,4.9,4.939,0l.334.315A23.335,23.335,0,0,1,.289,9.383Z" transform="translate(10.163 10.779)" fill="#fff"/>
      <path id="Trazado_167" data-name="Trazado 167" d="M0,4.127A24.8,24.8,0,0,0,2.941,0l.317.242A25.162,25.162,0,0,1,.292,4.4Z" transform="translate(5.019 4.734)" fill="#fff"/>
      <path id="Trazado_168" data-name="Trazado 168" d="M0,11.514C.057,11.451,5.052,6.014,5.666,0c.12.125.24.251.36.378C5.25,6.4.35,11.723.291,11.786Z" transform="translate(12.866 14.178)" fill="#fff"/>
      <path id="Trazado_169" data-name="Trazado 169" d="M0,16.848C.085,16.757,7.472,8.725,8.042,0q.172.342.341.687C7.487,9.3.375,17.03.292,17.12Z" transform="translate(24.529 33.859)" fill="#fff"/>
      <path id="Trazado_170" data-name="Trazado 170" d="M7.906,0q.131.478.246.944C6.64,8.906.371,15.724.291,15.809L0,15.536C.081,15.45,6.746,8.2,7.906,0Z" transform="translate(28.842 44.42)" fill="#fff"/>
      <path id="Trazado_171" data-name="Trazado 171" d="M0,14.131C.074,14.053,6.093,7.509,7.34,0c.109.142.218.283.328.427C6.268,7.91.366,14.325.292,14.4Z" transform="translate(17.363 21.358)" fill="#fff"/>
      <path id="Trazado_172" data-name="Trazado 172" d="M0,0A24.218,24.218,0,0,0,8.212,1.229l.021.4A24.743,24.743,0,0,1,.008.42C0,.279,0,.137,0,0Z" transform="translate(0.012 14.086)" fill="#fff"/>
      <path id="Trazado_173" data-name="Trazado 173" d="M.039.47,0,0C4.9,2.606,11.154,2.325,11.233,2.321l.021.4C11.175,2.725,5.01,3,.039.47Z" transform="translate(0.303 20.098)" fill="#fff"/>
      <path id="Trazado_174" data-name="Trazado 174" d="M.209.608Q.1.3,0,0C7.05,4.7,17.314,4.23,17.434,4.223l.021.4C17.336,4.628,7.357,5.082.209.608Z" transform="translate(4.416 40.316)" fill="#fff"/>
      <path id="Trazado_175" data-name="Trazado 175" d="M17.859,4.9c-.12.006-10.243.468-17.4-4.11Q.23.4,0,0C7.053,4.99,17.716,4.506,17.839,4.5Z" transform="translate(9.813 52.483)" fill="#fff"/>
      <path id="Trazado_176" data-name="Trazado 176" d="M14.613,2.946l.021.4c-.106.005-8.05.367-14.54-2.853Q.046.245,0,0C6.43,3.32,14.507,2.952,14.613,2.946Z" transform="translate(1.507 29.145)" fill="#fff"/>
    </g>
    <g id="Grupo_167" data-name="Grupo 167" transform="translate(60.334 0) rotate(30)">
      <g transform="matrix(0.87, -0.5, 0.5, 0.87, -62.5, 27.42)" filter="url(#Trazado_177)">
        <path id="Trazado_177-2" data-name="Trazado 177" d="M16.735,0S-.238,23.733,0,55.252,17.389,85.3,17.389,85.3s17.165,1.206,16.924-30.309S16.735,0,16.735,0Z" transform="translate(67.83 7.5) rotate(30)" fill="#7075ce"/>
      </g>
      <g id="Grupo_166" data-name="Grupo 166" transform="translate(16.557 7.467)">
        <path id="Trazado_178" data-name="Trazado 178" d="M.835,78.2a.238.238,0,0,1-.24-.236L0,.24a.239.239,0,0,1,.478,0l.595,77.722a.238.238,0,0,1-.237.24Z" fill="#fff"/>
      </g>
      <path id="Trazado_179" data-name="Trazado 179" d="M.18,7.884c.079-.033,6.2-2.612,9.911-7.376-.068-.17-.137-.341-.2-.509C6.29,4.794.079,7.411,0,7.441Z" transform="translate(16.849 18.719)" fill="#fff"/>
      <path id="Trazado_180" data-name="Trazado 180" d="M.183,3.463A30.058,30.058,0,0,0,5.469.42L5.244,0A29.521,29.521,0,0,1,0,3.022Z" transform="translate(16.731 8.612)" fill="#fff"/>
      <path id="Trazado_181" data-name="Trazado 181" d="M.183,10.133C.278,10.094,8.242,6.742,12.075.589L11.87,0C8.218,6.228.095,9.654,0,9.694Z" transform="translate(16.905 24.114)" fill="#fff"/>
      <path id="Trazado_182" data-name="Trazado 182" d="M.182,14.748c.137-.056,11.7-4.922,16.945-13.832Q17.114.456,17.1,0C12.147,9.193.137,14.251,0,14.307Z" transform="translate(17.159 52.46)" fill="#fff"/>
      <path id="Trazado_183" data-name="Trazado 183" d="M0,12.95l.182.44C.309,13.338,10.506,9.045,16.1,1.148Q16.2.585,16.3,0C10.967,8.332.131,12.9,0,12.95Z" transform="translate(17.251 66.002)" fill="#fff"/>
      <path id="Trazado_184" data-name="Trazado 184" d="M.18,12.146C.3,12.1,9.894,8.058,15.13.626c-.047-.21-.1-.417-.144-.626C9.905,7.534.119,11.656,0,11.705Z" transform="translate(16.929 34.978)" fill="#fff"/>
      <path id="Trazado_185" data-name="Trazado 185" d="M0,.464A29.53,29.53,0,0,0,8.334,5.856l.175-.444A28.906,28.906,0,0,1,.2,0Z" transform="translate(8.505 14.821)" fill="#fff"/>
      <path id="Trazado_186" data-name="Trazado 186" d="M11.064,8.538l.175-.443C11.151,8.06,4.215,5.259.19,0Q.095.263,0,.53C4.139,5.747,10.975,8.5,11.064,8.538Z" transform="translate(5.847 21.498)" fill="#fff"/>
      <path id="Trazado_187" data-name="Trazado 187" d="M16.74,13.682l.175-.443C16.778,13.187,5.4,8.6.074,0Q.036.381,0,.763C5.544,9.173,16.607,13.63,16.74,13.682Z" transform="translate(0.394 45.499)" fill="#fff"/>
      <path id="Trazado_188" data-name="Trazado 188" d="M17.142,13.742C17.005,13.687,5.185,8.921,0,0Q.049.551.106,1.084c5.5,8.526,16.725,13.048,16.861,13.1Z" transform="translate(0.293 61.393)" fill="#fff"/>
      <path id="Trazado_189" data-name="Trazado 189" d="M.142,0C.094.192.048.386,0,.58,5.451,7.3,14.258,10.849,14.373,10.894l.175-.443C14.436,10.4,5.48,6.8.142,0Z" transform="translate(2.713 31.924)" fill="#fff"/>
    </g>
  </g>
</svg>
